<?xml version="1.0" standalone="no"?>
<!DOCTYPE svg PUBLIC "-//W3C//DTD SVG 20010904//EN"
 "http://www.w3.org/TR/2001/REC-SVG-20010904/DTD/svg10.dtd">
<svg version="1.0" xmlns="http://www.w3.org/2000/svg"
 width="73.000000pt" height="70.000000pt" viewBox="0 0 73.000000 70.000000"
 preserveAspectRatio="xMidYMid meet">

<g transform="translate(0.000000,70.000000) scale(0.100000,-0.100000)"
fill="#000000" stroke="none">
<path d="M302 615 c-73 -20 -103 -37 -145 -84 -52 -58 -69 -97 -75 -172 -6
-90 16 -154 76 -218 63 -67 127 -95 217 -95 256 -1 389 294 219 483 -71 78
-190 113 -292 86z m209 -153 c27 -31 29 -37 29 -122 0 -146 -23 -170 -165
-170 -142 0 -165 24 -165 169 0 75 3 92 21 115 31 40 53 46 157 43 92 -2 94
-3 123 -35z"/>
<path d="M290 463 c-43 -16 -50 -33 -50 -129 0 -88 1 -94 26 -113 39 -31 179
-31 218 0 25 19 26 25 26 114 0 89 -1 95 -26 114 -22 17 -40 21 -103 20 -42 0
-83 -3 -91 -6z m188 -36 c2 -12 -3 -17 -17 -17 -12 0 -21 6 -21 13 0 31 32 34
38 4z m-35 -37 c37 -41 35 -74 -7 -116 -49 -49 -105 -42 -139 16 -21 35 -21
55 0 90 34 58 98 62 146 10z"/>
<path d="M342 388 c-46 -23 -37 -101 13 -114 73 -18 116 84 49 115 -29 13 -32
13 -62 -1z"/>
</g>
</svg>
