<?xml version="1.0" standalone="no"?>
<!DOCTYPE svg PUBLIC "-//W3C//DTD SVG 20010904//EN"
 "http://www.w3.org/TR/2001/REC-SVG-20010904/DTD/svg10.dtd">
<svg version="1.0" xmlns="http://www.w3.org/2000/svg"
 width="63.000000pt" height="56.000000pt" viewBox="0 0 63.000000 56.000000"
 preserveAspectRatio="xMidYMid meet">

<g transform="translate(0.000000,56.000000) scale(0.100000,-0.100000)"
fill="#000000" stroke="none">
<path d="M240 477 c-19 -6 -37 -13 -40 -16 -3 -4 -24 -18 -47 -33 -29 -19 -49
-43 -67 -82 -44 -94 -31 -171 42 -244 26 -26 60 -53 75 -59 45 -20 128 -26
189 -14 46 10 66 21 107 60 59 56 81 102 81 166 0 74 -29 125 -110 190 -49 40
-157 55 -230 32z m20 -132 c10 -12 10 -18 0 -30 -17 -21 -54 -15 -58 9 -7 32
36 48 58 21z m8 -127 l3 -68 -36 0 -35 0 0 71 0 70 33 -3 32 -3 3 -67z m164
56 c4 -3 8 -32 8 -65 0 -56 -1 -59 -24 -59 -23 0 -25 5 -28 48 -3 39 -6 47
-23 47 -17 0 -20 -8 -23 -47 -3 -46 -5 -48 -33 -48 l-29 0 0 63 c0 35 3 67 7
71 7 7 131 -2 145 -10z"/>
</g>
</svg>
