<?xml version="1.0" standalone="no"?>
<!DOCTYPE svg PUBLIC "-//W3C//DTD SVG 20010904//EN"
 "http://www.w3.org/TR/2001/REC-SVG-20010904/DTD/svg10.dtd">
<svg version="1.0" xmlns="http://www.w3.org/2000/svg"
 width="1200.000000pt" height="630.000000pt" viewBox="0 0 1200.000000 630.000000"
 preserveAspectRatio="xMidYMid meet">

<g transform="translate(0.000000,630.000000) scale(0.100000,-0.100000)"
fill="#000000" stroke="none">
<path d="M1645 3736 c-158 -39 -260 -149 -272 -295 -16 -192 90 -300 362 -366
147 -35 202 -56 239 -89 33 -31 36 -38 36 -89 0 -98 -66 -146 -201 -147 -102
0 -184 26 -283 91 l-78 52 -30 -34 c-16 -19 -42 -50 -58 -70 l-29 -36 48 -37
c119 -90 260 -136 422 -136 201 0 320 63 385 204 23 52 26 67 22 140 -9 171
-98 260 -319 321 -231 64 -256 73 -288 110 -55 63 -39 142 37 183 89 49 212
36 349 -38 l71 -38 56 71 55 72 -22 18 c-43 35 -186 98 -253 112 -82 18 -180
18 -249 1z"/>
<path d="M7693 3735 c-211 -46 -371 -204 -428 -423 -19 -76 -19 -231 0 -305
47 -182 180 -330 353 -395 79 -29 250 -41 347 -23 84 15 190 70 260 135 l60
54 -64 65 -64 65 -71 -54 c-82 -63 -134 -83 -231 -91 -159 -13 -293 67 -368
217 -30 61 -32 70 -32 180 0 108 2 119 32 182 37 79 101 146 175 184 43 23 70
28 146 32 84 4 101 2 160 -22 37 -14 91 -44 120 -66 29 -22 55 -40 58 -40 3 0
16 12 27 28 12 15 40 47 62 71 l40 43 -45 40 c-126 112 -351 163 -537 123z"/>
<path d="M2340 3728 c0 -5 48 -82 106 -171 58 -89 159 -244 224 -344 l119
-181 3 -229 3 -228 103 -3 102 -3 0 232 0 232 62 96 c34 53 135 207 225 344
90 136 163 250 163 255 0 4 -49 8 -109 10 -89 2 -110 0 -121 -13 -14 -17 -119
-181 -242 -377 -40 -65 -77 -118 -83 -118 -5 0 -30 33 -54 73 -25 39 -97 154
-160 255 l-115 183 -113 -2 c-64 -1 -113 -5 -113 -11z"/>
<path d="M3650 3171 c0 -313 3 -576 6 -585 5 -13 24 -16 105 -16 l99 0 0 413
1 412 22 -26 c12 -14 62 -77 112 -140 49 -63 174 -222 278 -354 104 -132 200
-253 213 -269 23 -28 28 -30 109 -33 l85 -2 0 584 0 585 -106 0 -106 0 4 -399
c2 -220 0 -398 -3 -395 -4 2 -54 66 -112 141 -59 76 -195 253 -305 393 l-199
255 -101 3 -102 3 0 -570z"/>
<path d="M4970 3155 l0 -585 249 0 c173 0 272 4 323 14 234 45 416 218 463
442 61 287 -75 553 -339 663 -104 43 -171 51 -448 51 l-248 0 0 -585z m532
394 c115 -25 214 -104 265 -214 26 -55 28 -69 28 -180 0 -109 -3 -125 -27
-177 -32 -68 -99 -138 -165 -171 -76 -39 -142 -48 -293 -39 l-135 7 -2 384
c-1 211 0 388 3 393 8 12 264 10 326 -3z"/>
<path d="M6895 3664 c-32 -42 -63 -84 -71 -93 -44 -54 -147 -186 -189 -241
-27 -36 -52 -67 -55 -70 -17 -15 -522 -670 -521 -677 1 -4 51 -8 112 -9 88 -1
114 2 129 15 10 9 73 86 140 171 66 85 131 169 144 185 13 17 63 80 110 140
47 61 128 164 178 230 51 66 95 122 98 125 3 3 28 34 55 70 27 36 52 67 55 70
3 3 28 34 55 70 27 36 53 67 57 68 4 2 8 8 8 13 0 5 -55 9 -124 9 l-124 0 -57
-76z"/>
<path d="M8510 3373 c0 -278 4 -384 14 -435 39 -180 149 -299 319 -344 80 -21
252 -18 321 6 130 44 210 108 260 209 53 103 56 134 56 548 l0 383 -100 0
-100 0 0 -370 c1 -240 -3 -385 -10 -412 -14 -55 -63 -128 -104 -154 -102 -68
-291 -51 -370 32 -78 83 -86 134 -86 554 l0 350 -100 0 -100 0 0 -367z"/>
<path d="M9720 3645 l0 -95 185 0 185 0 0 -488 0 -488 82 -1 c133 -1 119 -58
118 479 0 256 2 473 6 482 5 14 29 16 190 16 l184 0 0 95 0 95 -475 0 -475 0
0 -95z"/>
</g>
</svg>
