<?xml version="1.0" standalone="no"?>
<!DOCTYPE svg PUBLIC "-//W3C//DTD SVG 20010904//EN"
 "http://www.w3.org/TR/2001/REC-SVG-20010904/DTD/svg10.dtd">
<svg version="1.0" xmlns="http://www.w3.org/2000/svg"
 width="83.000000pt" height="77.000000pt" viewBox="0 0 83.000000 77.000000"
 preserveAspectRatio="xMidYMid meet">

<g transform="translate(0.000000,77.000000) scale(0.100000,-0.100000)"
fill="#000000" stroke="none">
<path d="M381 669 c-25 -4 -47 -13 -50 -18 -4 -5 -28 -19 -54 -30 -32 -14 -57
-34 -79 -66 -17 -25 -35 -45 -39 -45 -13 0 -39 -107 -39 -162 0 -74 23 -156
49 -174 11 -8 21 -20 21 -26 0 -19 80 -86 123 -103 101 -41 271 -24 326 31 14
15 36 33 49 42 32 21 82 130 89 194 6 63 -17 166 -47 208 -11 15 -20 33 -20
38 0 12 -109 82 -127 82 -7 0 -13 4 -13 9 0 19 -128 33 -189 20z m156 -195
c10 -10 27 -14 44 -12 23 4 28 1 26 -14 -2 -9 -6 -21 -10 -24 -4 -4 -7 -20 -7
-36 0 -15 -4 -28 -9 -28 -5 0 -12 -13 -16 -29 -8 -39 -62 -94 -104 -109 -36
-13 -92 -15 -128 -6 -30 8 -19 31 19 39 l30 7 -33 20 c-25 15 -29 22 -18 29
11 7 10 11 -8 24 -24 17 -33 52 -10 39 10 -6 10 -4 0 7 -7 7 -13 28 -13 46 l0
32 46 -24 c26 -14 53 -25 60 -25 8 0 14 -4 14 -10 0 -22 16 -8 25 23 6 18 20
36 33 42 12 5 22 13 22 17 0 13 21 9 37 -8z"/>
</g>
</svg>
